<svg version="1.1" id="Layer_1" xmlns="http://www.w3.org/2000/svg" xmlns:xlink="http://www.w3.org/1999/xlink" x="0px" y="0px"
	 width="100%" viewBox="0 0 714 398" enable-background="new 0 0 714 398" xml:space="preserve">
<path fill="#F8EEF0" opacity="1.000000" stroke="none" 
	d="
M532.000000,399.000000 
	C356.166718,399.000000 180.833405,398.986053 5.500183,399.093750 
	C1.751125,399.096069 0.902456,398.249908 0.905727,394.500031 
	C1.018839,264.833527 1.018826,135.166840 0.905791,5.500302 
	C0.902523,1.751294 1.750037,0.904889 5.499819,0.906547 
	C240.499725,1.010437 475.499695,1.010421 710.499573,0.906657 
	C714.247925,0.905002 715.097595,1.749203 715.094299,5.499690 
	C714.981140,135.166229 714.981201,264.832916 715.094177,394.499420 
	C715.097473,398.247803 714.252075,399.105042 710.500244,399.096375 
	C651.167114,398.959259 591.833496,399.000000 532.000000,399.000000 
z"/>
<path fill="#113C37" opacity="1.000000" stroke="none" 
	d="
M562.958374,291.001038 
	C566.959412,296.354309 570.760864,301.412140 574.540527,306.486328 
	C575.114929,307.257477 576.153442,307.988464 575.758179,309.047607 
	C575.200012,310.543152 573.741394,309.794586 572.715210,309.805542 
	C565.885986,309.878571 559.045837,309.628174 552.229675,309.935944 
	C548.901672,310.086212 547.144714,308.748474 545.402100,306.180237 
	C538.955078,296.678772 532.302734,287.316620 525.718750,277.908264 
	C525.051941,276.955475 524.506592,275.771729 523.592834,275.165649 
	C521.064148,273.488464 518.033264,275.183899 518.020874,278.218750 
	C517.982727,287.547424 517.914246,296.877869 518.063904,306.204285 
	C518.108032,308.954987 517.423828,310.024445 514.490784,309.906525 
	C509.002319,309.685913 503.497009,309.765533 498.002136,309.881775 
	C495.893250,309.926392 495.107666,309.352478 495.113281,307.100952 
	C495.181641,279.780975 495.187897,252.460648 495.107178,225.140732 
	C495.099854,222.664383 495.941803,222.051559 498.261902,222.111908 
	C503.755524,222.254807 509.260529,222.298370 514.750610,222.098572 
	C517.490356,221.998871 518.092224,223.045578 518.053833,225.556274 
	C517.926331,233.883636 517.944580,242.215073 518.064453,250.542664 
	C518.085266,251.991684 516.877441,254.209274 519.071716,254.842194 
	C521.333313,255.494553 523.410706,255.013443 525.133728,252.724060 
	C531.940613,243.679764 539.114441,234.910187 545.856689,225.819565 
	C548.005249,222.922623 550.279236,221.948929 553.775818,222.078049 
	C560.928162,222.342133 568.097168,222.157227 575.520569,222.157227 
	C575.437134,224.660934 573.507080,225.948410 572.256775,227.518173 
	C563.335754,238.718460 554.409546,249.916916 545.290527,260.955414 
	C543.214600,263.468353 543.168274,265.074738 545.221741,267.649506 
	C551.240723,275.196564 556.932068,283.004944 562.958374,291.001038 
z"/>
<path fill="#103C37" opacity="1.000000" stroke="none" 
	d="
M268.254089,222.723999 
	C281.801544,226.388199 291.404785,234.098587 296.991211,246.706650 
	C298.040466,249.074661 297.866089,250.099777 295.317627,250.909363 
	C290.086792,252.571091 284.906128,254.404373 279.765533,256.329132 
	C277.879578,257.035309 276.991211,256.879669 275.891663,254.919861 
	C269.107452,242.828064 257.402527,238.576965 245.669144,243.714188 
	C235.074463,248.352844 229.557770,261.581360 233.157501,273.715973 
	C236.116989,283.692413 242.748657,289.254333 252.781067,290.173950 
	C263.295502,291.137787 271.002289,287.071564 275.627747,277.728119 
	C276.740509,275.480347 277.567719,274.755280 280.059784,275.748871 
	C285.000824,277.718842 290.037231,279.490356 295.131744,281.018951 
	C298.082977,281.904480 297.907959,283.164276 296.904083,285.592255 
	C290.526581,301.016754 274.723846,311.040192 255.608215,310.917297 
	C236.614029,310.795135 221.025497,303.631561 213.639893,285.277283 
	C206.373154,267.218353 207.785965,249.151611 221.710815,234.491806 
	C234.215546,221.327118 250.488358,218.900970 268.254089,222.723999 
z"/>
<path fill="#103C37" opacity="1.000000" stroke="none" 
	d="
M421.077942,305.995178 
	C403.500610,297.229675 394.220367,276.469788 398.566132,256.256317 
	C402.555267,237.701553 415.238342,225.173019 433.186066,222.058243 
	C454.204803,218.410492 472.370392,225.670395 482.347626,241.706314 
	C482.611603,242.130600 482.885040,242.550064 483.127716,242.986465 
	C486.762207,249.522324 486.761505,249.523926 479.809448,252.009293 
	C478.713226,252.401199 477.610199,252.774063 476.513702,253.165192 
	C473.221832,254.339386 469.960968,256.365509 466.633423,256.480560 
	C462.487701,256.623962 462.769592,251.556961 460.590546,249.121399 
	C451.681152,239.163086 433.987274,239.327972 425.627838,249.751953 
	C419.237030,257.721130 418.187500,270.037659 423.142853,278.913300 
	C427.937225,287.500610 436.504761,291.622498 447.299072,290.030334 
	C454.653595,288.945496 460.359406,285.000977 463.425507,278.104828 
	C464.675873,275.292542 465.838440,274.756042 468.609985,275.930939 
	C472.738495,277.681061 476.955994,279.385437 481.299835,280.419250 
	C486.005859,281.539215 485.875793,283.791534 484.069275,287.316498 
	C476.747711,301.602936 464.685394,308.834351 449.139343,310.629303 
	C439.545624,311.736969 430.203522,310.463074 421.077942,305.995178 
z"/>
<path fill="#18413C" opacity="1.000000" stroke="none" 
	d="
M386.949768,99.864014 
	C380.962921,99.864960 375.462677,100.003464 369.974121,99.810104 
	C367.122772,99.709641 366.053284,100.590187 366.459473,103.473717 
	C366.783508,105.774551 366.765106,108.123169 366.909973,110.449867 
	C366.996918,111.846596 367.096344,113.084602 365.008789,113.056236 
	C363.213959,113.031853 362.098297,112.605812 362.179962,110.592941 
	C362.193390,110.261902 362.182159,109.920631 362.117401,109.597084 
	C361.484924,106.437485 363.460968,101.177002 360.843628,100.428207 
	C355.914856,99.018120 350.309509,99.901718 344.987793,99.984535 
	C343.599030,100.006142 343.841583,101.374786 343.929260,102.309441 
	C344.177277,104.954048 344.526886,107.588989 344.792755,110.232140 
	C344.916382,111.461418 345.612030,113.020844 343.298645,113.027351 
	C341.715912,113.031807 340.280762,113.059761 340.099792,110.903488 
	C339.918915,108.749069 339.220856,106.581558 339.379639,104.467117 
	C339.693420,100.288490 337.648102,99.391388 334.074890,99.835487 
	C332.598816,100.018929 331.070068,99.983269 329.584961,99.841476 
	C327.263763,99.619850 326.661072,100.709618 327.000671,102.770897 
	C327.378784,105.065895 327.858215,107.359871 327.995453,109.671974 
	C328.059723,110.754898 330.193390,112.566437 327.195496,113.019112 
	C325.010803,113.348991 324.005188,112.605965 323.501373,110.306007 
	C320.738129,97.691498 321.781158,85.434212 327.141693,73.727425 
	C339.333374,47.102268 367.849640,33.636791 395.812256,41.076210 
	C423.564453,48.459641 441.577026,74.620399 438.973083,103.761307 
	C436.338013,133.250565 408.574310,157.504669 379.133301,156.134079 
	C376.462738,156.009750 374.653687,155.753036 375.102814,152.356964 
	C375.380859,150.254669 374.289124,148.140076 372.537720,147.238068 
	C368.746094,145.285263 369.947144,142.976440 371.757355,139.974426 
	C373.419464,142.959229 374.760651,145.866196 376.550140,148.464417 
	C379.223175,152.345581 382.132050,152.389694 384.861023,148.536835 
	C389.699768,141.705261 391.139069,133.619766 392.801941,125.646439 
	C393.237671,123.557266 391.807892,123.564445 390.409607,123.562088 
	C387.245605,123.556747 384.077942,123.461205 380.918884,123.584557 
	C378.815704,123.666672 377.980133,122.929573 377.900330,120.774101 
	C377.795563,117.944679 379.828857,119.317154 380.984283,119.000214 
	C381.448944,118.872765 381.981598,119.019608 382.476685,118.972443 
	C386.224304,118.615425 392.118195,120.705208 393.300018,118.092728 
	C395.524170,113.176147 395.080444,107.069313 394.958191,101.399544 
	C394.928101,100.003769 393.988586,99.877533 392.936707,99.874275 
	C391.104889,99.868599 389.273041,99.867165 386.949768,99.864014 
z"/>
<path fill="#103C37" opacity="1.000000" stroke="none" 
	d="
M153.737656,256.186768 
	C156.724152,265.040802 159.565384,273.525726 162.470871,282.202545 
	C164.543686,281.338501 164.417496,279.435211 164.899307,278.045349 
	C170.925781,260.661560 176.963959,243.280212 182.736328,225.811417 
	C183.720047,222.834396 185.060394,222.000671 188.002304,222.092880 
	C194.483444,222.295990 200.975342,222.155930 207.423660,222.155930 
	C208.253357,223.915710 207.152252,225.198822 206.671234,226.496964 
	C196.869781,252.948059 186.939713,279.351807 177.252106,305.844299 
	C176.074478,309.064667 174.622375,310.103271 171.267883,309.931183 
	C165.290207,309.624542 159.282501,309.736481 153.293701,309.902374 
	C151.146179,309.961853 149.989395,309.371155 149.238373,307.320831 
	C139.308411,280.211609 129.319702,253.123947 119.352104,226.028503 
	C118.955559,224.950562 118.622772,223.849152 118.061638,222.161118 
	C125.653397,222.161118 132.869568,222.212433 140.084259,222.130951 
	C142.349915,222.105362 142.668289,223.553284 143.223358,225.220398 
	C146.625305,235.437592 150.125153,245.622223 153.737656,256.186768 
z"/>
<path fill="#133D38" opacity="1.000000" stroke="none" 
	d="
M328.000000,162.988953 
	C337.663086,162.989029 346.834198,162.761154 355.985840,163.084671 
	C360.610107,163.248123 360.771088,159.874680 361.018341,157.260635 
	C361.271332,154.586182 358.499695,155.930832 357.193359,155.923401 
	C338.701202,155.818039 320.205414,155.672379 301.717316,155.965515 
	C296.443451,156.049118 294.078217,154.309555 292.626160,149.209351 
	C289.125427,136.913391 284.849091,124.840233 281.152740,112.596558 
	C280.267090,109.662994 279.021393,108.629478 275.986267,108.783592 
	C271.001068,109.036720 265.993683,108.850319 260.995636,108.851677 
	C258.510101,108.852348 256.065033,108.530815 255.917496,105.399185 
	C255.764084,102.142578 258.166870,101.805862 260.702087,101.814178 
	C267.366028,101.836029 274.031769,101.908615 280.693481,101.783783 
	C283.857697,101.724487 285.570221,102.975327 286.452057,106.045967 
	C287.588196,110.002235 288.026703,115.503387 290.761353,117.297874 
	C293.818909,119.304214 299.110718,117.972412 303.430328,117.977554 
	C324.588684,118.002731 345.747070,117.978920 366.905457,117.996124 
	C372.981720,118.001068 374.009552,119.461929 371.990936,125.256744 
	C369.323608,132.913834 366.587585,140.546951 363.863434,148.240280 
	C370.767365,149.562073 371.226166,150.400406 368.944458,156.914047 
	C364.356689,170.010757 364.356689,170.010834 350.577271,170.010986 
	C335.416565,170.011154 320.255829,170.011169 305.095123,170.011108 
	C304.095520,170.011108 303.093109,169.961838 302.096832,170.019180 
	C299.564636,170.164917 297.646484,169.205994 297.618591,166.541611 
	C297.590790,163.887177 299.452240,162.951614 302.010315,162.968933 
	C310.506531,163.026474 319.003387,162.989609 328.000000,162.988953 
z"/>
<path fill="#113C37" opacity="1.000000" stroke="none" 
	d="
M307.154663,300.941650 
	C307.154785,275.816895 307.219055,251.184296 307.079285,226.552872 
	C307.060364,223.217453 307.653198,221.805435 311.343231,222.070618 
	C316.144989,222.415726 321.008240,222.410110 325.811127,222.072861 
	C329.529144,221.811798 330.102661,223.311798 330.078644,226.608826 
	C329.935760,246.246994 330.130035,265.888123 329.903870,285.524719 
	C329.859436,289.383820 330.965912,290.267181 334.601746,290.076660 
	C340.576935,289.763550 346.584320,290.116974 352.570435,289.935852 
	C355.259247,289.854523 356.014191,290.790771 355.891266,293.368347 
	C355.638947,298.660339 357.585480,305.433685 354.997650,308.840576 
	C352.538239,312.078491 345.368347,309.716827 340.276520,309.802032 
	C331.125214,309.955170 321.962372,309.632416 312.818787,309.939178 
	C308.525238,310.083221 306.209900,309.234283 307.127991,304.424957 
	C307.311951,303.461456 307.154633,302.432800 307.154663,300.941650 
z"/>
<path fill="#113C37" opacity="1.000000" stroke="none" 
	d="
M380.870697,309.844238 
	C376.062225,309.844025 371.728210,309.682861 367.413544,309.902435 
	C364.717010,310.039673 364.095001,309.086853 364.103180,306.518646 
	C364.188965,279.565674 364.199158,252.612152 364.093536,225.659302 
	C364.082275,222.786407 364.954834,221.991089 367.734344,222.097137 
	C373.050690,222.299988 378.385162,222.291672 383.702332,222.099762 
	C386.369415,222.003510 387.064026,222.920685 387.056366,225.498032 
	C386.976196,252.451050 386.914246,279.404999 387.088074,306.357147 
	C387.121521,311.546478 383.671509,309.385101 380.870697,309.844238 
z"/>
<path fill="#617CFF" opacity="1.000000" stroke="none" 
	d="
M508.000000,352.000000 
	C392.394775,352.001007 277.289551,352.002319 162.184311,352.002350 
	C153.782089,352.002350 153.001617,351.231323 152.997513,342.959839 
	C152.994690,337.296204 152.994385,331.632538 152.997574,325.968903 
	C153.002121,317.887665 153.863602,316.998840 161.755814,316.998383 
	C201.401321,316.996063 241.046814,316.998688 280.692322,316.999023 
	C364.480927,316.999725 448.269562,316.999390 532.058167,317.001434 
	C540.122681,317.001648 540.992432,317.860016 540.998840,325.790802 
	C541.003784,331.954193 541.016907,338.117615 540.995178,344.280914 
	C540.972778,350.644989 539.693237,351.971527 533.486816,351.992798 
	C525.157959,352.021332 516.828918,351.999969 508.000000,352.000000 
z"/>
<path fill="#18413C" opacity="1.000000" stroke="none" 
	d="
M342.788513,185.005890 
	C341.784058,179.289597 343.437439,175.669281 347.634644,174.030960 
	C351.646484,172.464996 355.275574,173.230743 357.932007,176.612778 
	C360.698944,180.135605 360.904419,183.989838 357.923370,187.579422 
	C355.018677,191.077087 351.359222,191.910156 347.187653,190.020630 
	C345.128998,189.088181 343.765991,187.443069 342.788513,185.005890 
z"/>
<path fill="#18413C" opacity="1.000000" stroke="none" 
	d="
M305.627625,174.461334 
	C310.286163,172.467590 314.169891,173.029861 317.072205,176.885574 
	C319.667145,180.332932 319.676270,184.007401 316.971466,187.465515 
	C314.729340,190.332138 311.702667,191.545578 308.130341,190.750061 
	C304.574707,189.958298 302.277802,187.601318 301.406403,184.091263 
	C300.408112,180.070267 301.931946,176.950638 305.627625,174.461334 
z"/>
<path fill="#F1E8E9" opacity="1.000000" stroke="none" 
	d="
M390.546204,76.495865 
	C392.529175,76.510582 394.128784,76.406982 394.049438,78.681862 
	C394.032104,79.178093 394.117828,79.678452 394.162994,80.176277 
	C394.597321,84.959663 396.916656,90.976746 394.262726,94.193146 
	C391.763733,97.221741 385.508148,94.803696 380.921417,95.154343 
	C380.755768,95.167000 380.588257,95.155884 380.421631,95.155853 
	C365.265320,95.153267 365.331604,95.160812 367.049591,80.065468 
	C367.362274,77.318253 368.346832,76.371696 371.094635,76.442566 
	C377.422638,76.605774 383.757721,76.494270 390.546204,76.495865 
z"/>
<path fill="#F5ECED" opacity="1.000000" stroke="none" 
	d="
M371.684784,56.855713 
	C373.028290,52.669079 374.504669,48.974907 377.107330,45.871311 
	C379.371277,43.171638 381.901855,42.845928 384.164032,45.768368 
	C389.751556,52.986645 391.161377,61.740353 392.887146,70.351959 
	C393.268005,72.252411 391.757751,71.970512 390.670898,71.973839 
	C384.025757,71.994148 377.379608,71.922005 370.735779,72.016891 
	C368.546478,72.048149 368.275513,71.153023 368.730072,69.317078 
	C369.724426,65.300598 370.610321,61.257275 371.684784,56.855713 
z"/>
<path fill="#F1E8E9" opacity="1.000000" stroke="none" 
	d="
M414.783203,77.107086 
	C416.656250,82.209877 416.991455,87.188957 417.655334,92.114090 
	C417.925507,94.118561 417.568207,95.382317 415.191101,95.163574 
	C414.532745,95.102989 413.860687,95.199516 413.200378,95.150558 
	C408.791443,94.823624 402.200134,97.133499 400.467163,94.242287 
	C398.028381,90.173531 399.123108,83.992249 398.685638,78.716072 
	C398.492340,76.384727 400.116211,76.484001 401.627563,76.505104 
	C405.935150,76.565277 410.242157,76.667023 414.783203,77.107086 
z"/>
<path fill="#F1E8E9" opacity="1.000000" stroke="none" 
	d="
M356.879974,95.155579 
	C353.734100,95.155579 351.052307,94.936012 348.421692,95.208984 
	C344.825745,95.582123 342.999908,94.607483 343.939941,90.675751 
	C344.015930,90.357910 343.977142,90.013420 343.999634,89.681854 
	C344.867310,76.877907 348.424927,74.180077 360.970795,76.438896 
	C363.332489,76.864098 362.906677,78.179443 362.807373,79.623520 
	C362.545532,83.431778 361.912048,87.253311 362.077209,91.041191 
	C362.242767,94.838257 360.539032,95.619987 356.879974,95.155579 
z"/>
<path fill="#F4EBED" opacity="1.000000" stroke="none" 
	d="
M401.035034,118.984245 
	C398.573273,119.161819 398.507507,118.056725 398.635651,116.493561 
	C398.989044,112.183128 399.291504,107.862648 399.404816,103.540649 
	C399.472321,100.966148 400.082123,99.587563 403.097015,99.788101 
	C407.073395,100.052589 411.082855,99.935989 415.073547,99.822380 
	C417.295654,99.759117 418.117004,100.596115 417.671387,102.755623 
	C417.537384,103.404976 417.507599,104.075691 417.427399,104.736305 
	C415.696960,118.991165 415.696869,118.991150 401.035034,118.984245 
z"/>
<path fill="#EDE5E7" opacity="1.000000" stroke="none" 
	d="
M391.175659,149.053116 
	C393.313812,141.204361 396.446533,133.542862 397.460449,125.278564 
	C397.673218,123.544289 399.077698,123.459503 400.483429,123.470749 
	C403.799164,123.497284 407.115753,123.512062 410.431030,123.464905 
	C412.313843,123.438126 413.250519,123.699257 412.246613,125.972420 
	C407.845581,135.937714 401.826019,144.392517 391.175659,149.053116 
z"/>
<path fill="#F3EAEC" opacity="1.000000" stroke="none" 
	d="
M359.844238,52.836731 
	C363.089355,49.650204 366.417694,47.246590 371.175751,45.647064 
	C367.478973,53.803253 365.028717,61.772865 363.958679,70.102142 
	C363.711334,72.027603 362.475830,71.989868 361.109924,71.989182 
	C356.968384,71.987122 352.826843,71.988426 348.307343,71.988426 
	C350.520752,64.450638 354.575653,58.489456 359.844238,52.836731 
z"/>
<path fill="#F3EAEC" opacity="1.000000" stroke="none" 
	d="
M394.178223,55.920372 
	C393.078430,52.380566 392.044922,49.240971 390.545746,46.118793 
	C402.376038,50.580879 408.455811,60.212589 413.057800,71.277390 
	C412.472992,71.633720 412.207367,71.939140 411.980835,71.912460 
	C407.223083,71.352043 401.068298,74.381027 398.015228,70.505302 
	C395.238068,66.979820 395.413788,61.128250 394.178223,55.920372 
z"/>
<path fill="#EEE7E8" opacity="1.000000" stroke="none" 
	d="
M428.870544,95.163422 
	C423.692627,95.974251 421.460907,94.515587 421.793518,89.211670 
	C421.995178,85.996262 420.882111,82.671402 420.176941,79.435547 
	C419.700287,77.248398 420.318665,76.586815 422.584045,76.426567 
	C430.108673,75.894279 430.969055,76.357620 432.841034,83.549644 
	C433.382812,85.631111 433.493866,87.831085 434.104980,89.886780 
	C435.450653,94.413612 433.718445,95.938171 428.870544,95.163422 
z"/>
<path fill="#F0E7E9" opacity="1.000000" stroke="none" 
	d="
M329.185608,81.336319 
	C330.807739,77.138588 337.062103,74.805847 340.505859,76.670059 
	C341.803375,77.372475 341.260162,78.283051 341.114960,79.196014 
	C340.620850,82.302734 339.609650,85.424477 339.716003,88.508751 
	C339.923737,94.531532 337.154846,95.565605 331.718658,95.368713 
	C327.253479,95.206993 326.234161,93.845657 327.176147,89.942543 
	C327.835602,87.210152 328.444183,84.465485 329.185608,81.336319 
z"/>
<path fill="#F3EAEC" opacity="1.000000" stroke="none" 
	d="
M422.196747,118.987923 
	C418.584503,118.905952 420.087616,116.748108 420.344666,115.461632 
	C421.158081,111.390625 422.117126,107.333176 422.054321,103.167320 
	C422.014832,100.548790 423.052277,99.871056 425.580627,99.785027 
	C435.254547,99.455879 435.544739,99.723778 433.271149,109.365814 
	C433.156891,109.850410 433.083466,110.344925 432.961700,110.827423 
	C430.901093,118.991776 430.900085,118.991516 422.196747,118.987923 
z"/>
<path fill="#E8E2E3" opacity="1.000000" stroke="none" 
	d="
M407.384308,144.043518 
	C410.549591,137.528992 414.857208,131.437469 418.067535,124.637886 
	C419.425323,121.762047 424.038452,123.863403 428.074554,123.450333 
	C422.889374,132.684204 416.473175,139.466766 407.384308,144.043518 
z"/>
<path fill="#EDE5E7" opacity="1.000000" stroke="none" 
	d="
M406.799805,52.232162 
	C407.283478,51.863869 408.246521,51.365417 408.743317,51.658173 
	C416.905670,56.468513 423.172577,63.101902 428.048431,71.839745 
	C426.755585,71.914871 425.977356,71.869362 425.237946,72.017632 
	C420.029816,73.061996 417.171692,71.099121 415.487640,65.894814 
	C413.857269,60.856293 410.582764,56.503990 406.799805,52.232162 
z"/>
<path fill="#F1E8E9" opacity="1.000000" stroke="none" 
	d="
M352.592712,51.619026 
	C353.560333,51.375237 355.526398,50.515495 354.334412,52.114830 
	C350.035980,57.882114 346.704041,64.082779 343.529419,70.522636 
	C341.820618,73.988914 337.347321,71.455414 333.211334,71.989922 
	C338.160645,63.075016 344.460205,56.737766 352.592712,51.619026 
z"/>
<path fill="#E8E2E3" opacity="1.000000" stroke="none" 
	d="
M407.009827,144.017426 
	C406.843018,144.814911 405.992798,145.232925 405.640961,144.778702 
	C404.987000,143.934448 406.152740,143.946320 406.821228,143.865204 
	C407.063446,144.113602 407.030365,144.047928 407.009827,144.017426 
z"/>
<path fill="#F1E8E9" opacity="1.000000" stroke="none" 
	d="
M298.554474,144.468201 
	C296.817413,139.039627 295.377838,133.930054 293.617126,128.933640 
	C292.628754,126.128922 292.544891,124.995193 296.226715,124.853188 
	C300.811249,124.676353 303.230438,125.552979 303.433533,130.773041 
	C303.599152,135.030624 305.167267,139.216949 305.648651,143.487274 
	C305.837860,145.165726 308.103638,147.901703 304.594177,148.755463 
	C301.493439,149.509781 298.974182,148.687714 298.554474,144.468201 
z"/>
<path fill="#F0E7E9" opacity="1.000000" stroke="none" 
	d="
M313.973419,124.991890 
	C318.149078,124.289894 319.269043,125.775436 319.153717,129.514023 
	C318.990448,134.807098 319.538788,140.121201 319.754730,145.427475 
	C319.820312,147.039856 320.287476,148.883804 317.573700,148.865555 
	C315.512512,148.851715 313.629028,149.051651 313.171417,146.216293 
	C312.221100,140.328461 311.241333,134.435547 309.952057,128.615952 
	C309.184174,125.149719 310.691162,124.605431 313.973419,124.991890 
z"/>
<path fill="#F0E7E9" opacity="1.000000" stroke="none" 
	d="
M333.817474,125.030838 
	C336.228882,129.605087 333.775574,134.027328 333.877167,138.533646 
	C333.932648,140.994705 333.143372,143.466812 333.100189,145.940323 
	C333.056183,148.457748 331.835083,148.822800 329.667236,148.913269 
	C326.974457,149.025650 326.773468,147.581741 326.711578,145.540054 
	C326.555878,140.400131 326.501190,135.240387 325.969452,130.134048 
	C325.554260,126.146957 326.494446,124.142258 330.863586,124.970528 
	C331.664856,125.122414 332.518707,124.996948 333.817474,125.030838 
z"/>
<path fill="#F0E7E9" opacity="1.000000" stroke="none" 
	d="
M341.170319,135.255280 
	C341.477539,132.667374 341.919830,130.532364 341.952271,128.391144 
	C341.989288,125.948792 342.721161,124.948097 345.412018,124.914139 
	C351.662689,124.835236 351.675049,124.671921 350.098541,130.913910 
	C348.842987,135.885239 347.298737,140.799988 346.360779,145.829025 
	C345.794800,148.863937 344.097107,149.073898 341.789032,148.823898 
	C338.584595,148.476807 340.161102,146.075958 340.208710,144.599640 
	C340.304535,141.628159 340.796051,138.669434 341.170319,135.255280 
z"/>
<path fill="#EDE5E7" opacity="1.000000" stroke="none" 
	d="
M354.794220,148.817932 
	C352.093201,148.376770 353.265686,146.880142 353.548004,145.755096 
	C354.922455,140.277481 356.696686,134.873886 357.659973,129.327820 
	C358.408630,125.017731 360.410431,124.172638 364.602051,125.544426 
	C360.967255,133.169113 360.150909,141.780136 354.794220,148.817932 
z"/>
<path fill="#F7ECEE" opacity="1.000000" stroke="none" 
	d="
M453.000000,350.003723 
	C355.855072,350.002777 259.210175,350.002014 162.565247,350.000427 
	C155.004089,350.000305 155.002411,349.997589 154.999557,342.643524 
	C154.997162,336.478241 155.152298,330.307831 154.944519,324.149567 
	C154.810730,320.184692 156.447510,318.611755 160.276199,318.987549 
	C161.101395,319.068542 161.941330,318.999207 162.774475,318.999207 
	C285.580170,318.997925 408.385895,318.996490 531.191589,318.995514 
	C539.001770,318.995453 539.002747,318.997040 539.004272,326.604706 
	C539.005432,332.603363 538.822021,338.609406 539.065491,344.598145 
	C539.236206,348.795929 537.547852,350.085602 533.481689,350.066925 
	C506.821594,349.944336 480.160675,350.003723 453.000000,350.003723 
z"/>
<path fill="#E8E2E3" opacity="1.000000" stroke="none" 
	d="
M352.596069,180.576706 
	C353.563782,182.820663 353.192444,184.184845 350.862244,184.182266 
	C349.804504,184.181091 348.940369,183.500916 348.983276,182.338913 
	C349.065674,180.105759 350.345825,179.577194 352.596069,180.576706 
z"/>
<path fill="#E8E2E3" opacity="1.000000" stroke="none" 
	d="
M312.137573,182.108093 
	C311.318726,184.610214 309.913239,184.812225 308.364746,183.448334 
	C307.576080,182.753708 307.622345,181.506622 308.378998,180.792847 
	C309.948914,179.311935 311.290192,179.660187 312.137573,182.108093 
z"/>
<path fill="#757172" opacity="1.000000" stroke="none" 
	d="
M228.226349,339.422668 
	C226.261353,343.130859 224.212128,343.226593 222.630905,339.774353 
	C221.117172,336.469421 220.070557,332.946533 218.896851,329.492859 
	C218.633881,328.719086 217.555603,327.596283 219.227554,327.115479 
	C220.403397,326.777344 221.551666,326.882294 222.101685,328.298462 
	C223.055359,330.754028 224.031387,333.200928 225.333328,336.501434 
	C226.393784,333.907684 227.219818,332.091675 227.873611,330.215607 
	C228.302856,328.983856 228.916855,328.249054 230.298660,328.134247 
	C231.995148,327.993256 232.616272,328.944763 233.097565,330.341248 
	C233.741760,332.210358 234.544083,334.024933 235.348312,336.037598 
	C237.312180,333.778107 237.567322,331.030823 238.662827,328.666504 
	C239.371323,327.137451 240.413651,326.596313 241.806152,327.158173 
	C243.651657,327.902740 242.141266,329.203766 241.878754,330.054169 
	C240.901657,333.219391 239.677170,336.308777 238.525299,339.419159 
	C238.002151,340.831848 237.535965,342.141235 235.498718,342.075073 
	C233.475815,342.009369 233.127594,340.690948 232.617996,339.256989 
	C232.064651,337.699951 231.390762,336.185730 230.699844,334.481171 
	C229.088913,335.698212 229.205017,337.636261 228.226349,339.422668 
z"/>
<path fill="#777374" opacity="1.000000" stroke="none" 
	d="
M374.985596,328.837677 
	C377.385132,325.971161 379.297150,326.163391 380.639343,329.329041 
	C382.322174,333.298157 383.906525,337.309021 385.553375,341.350952 
	C383.983185,342.195587 382.846680,342.199097 381.452820,341.067291 
	C379.044434,339.111603 376.273376,339.118713 373.820984,341.000397 
	C372.775024,341.802948 371.659149,342.423828 370.713287,341.816833 
	C369.073639,340.764679 370.618866,339.455292 371.019135,338.392639 
	C372.188477,335.288055 373.566315,332.262024 374.985596,328.837677 
z"/>
<path fill="#777374" opacity="1.000000" stroke="none" 
	d="
M467.937561,331.865051 
	C469.176422,329.878601 468.746399,327.098450 471.817261,326.948212 
	C475.063629,326.789429 474.730927,329.613129 475.601349,331.307098 
	C476.878113,333.791901 477.875458,336.430420 478.841370,339.058746 
	C479.136169,339.860901 480.188385,340.837860 479.211304,341.657043 
	C478.465149,342.282654 477.193817,342.348877 476.429962,341.668640 
	C473.169830,338.765503 470.086853,339.158142 466.863983,341.742065 
	C466.388062,342.123657 465.133636,342.037354 464.554108,341.670471 
	C463.650024,341.098114 464.467438,340.220245 464.745850,339.532806 
	C465.736664,337.086334 466.785706,334.663452 467.937561,331.865051 
z"/>
<path fill="#777374" opacity="1.000000" stroke="none" 
	d="
M173.553162,327.148132 
	C175.620712,331.223572 177.370834,335.129303 178.999908,339.084900 
	C179.323868,339.871460 180.369690,340.847626 179.313004,341.687347 
	C178.512543,342.323395 177.302628,342.235657 176.530792,341.589630 
	C173.456650,339.016632 170.521683,338.943115 167.451630,341.611633 
	C166.710342,342.256012 165.494247,342.320953 164.667267,341.678070 
	C163.809372,341.011108 164.647339,340.187561 164.918030,339.511810 
	C166.328079,335.991760 167.871078,332.523926 169.231430,328.985443 
	C169.992783,327.005096 171.426285,326.766785 173.553162,327.148132 
z"/>
<path fill="#757172" opacity="1.000000" stroke="none" 
	d="
M205.381622,334.967896 
	C205.381805,333.507965 205.265137,332.498657 205.408630,331.527863 
	C205.630066,330.029724 204.480820,327.722168 206.674820,327.272919 
	C209.036255,326.789337 211.580231,327.098358 214.035751,327.228271 
	C214.862717,327.272003 214.783615,328.198578 214.650787,328.831970 
	C214.462372,329.730438 213.795837,330.187805 212.930023,330.384430 
	C211.702225,330.663177 209.780746,329.990051 209.432373,331.510681 
	C208.952011,333.607391 211.451035,332.575317 212.133301,333.361786 
	C215.692459,337.464569 209.850937,336.104279 209.300140,337.780823 
	C209.530716,338.174469 209.618881,338.501343 209.832199,338.660583 
	C211.250687,339.719635 214.433701,337.512451 214.471970,340.627808 
	C214.503372,343.184570 211.904541,342.000977 210.547394,341.981354 
	C208.396759,341.950317 205.119904,343.230560 205.375244,338.907318 
	C205.443375,337.754028 205.382828,336.593170 205.381622,334.967896 
z"/>
<path fill="#7B7778" opacity="1.000000" stroke="none" 
	d="
M301.759399,327.608276 
	C306.262146,326.301514 303.504517,330.737274 305.414490,331.774811 
	C308.256531,330.685577 308.648712,325.246704 313.785339,327.576111 
	C310.009613,331.837067 306.261169,336.429138 313.645294,341.202667 
	C309.474670,341.943726 309.474670,341.943726 305.521820,338.270416 
	C303.706299,338.797089 305.614227,342.302460 302.320496,341.869019 
	C300.983765,337.239594 301.720306,332.620026 301.759399,327.608276 
z"/>
<path fill="#7F7B7B" opacity="1.000000" stroke="none" 
	d="
M319.512878,340.824219 
	C318.741516,336.486511 322.724426,339.722473 323.684662,337.935913 
	C323.384369,336.059082 321.629913,336.582153 320.626465,335.952942 
	C317.398010,333.928558 317.119751,329.696289 320.072571,327.602173 
	C321.767975,326.399811 323.539886,326.609406 325.256866,327.463074 
	C325.961792,327.813538 326.851471,328.475220 326.461548,329.368835 
	C325.628662,331.277588 323.556488,330.051422 321.734497,330.869690 
	C324.360779,333.637878 330.241913,334.745270 326.787292,340.160522 
	C324.975647,343.000397 322.335693,342.417114 319.512878,340.824219 
z"/>
<path fill="#757172" opacity="1.000000" stroke="none" 
	d="
M290.110107,339.916321 
	C285.623169,334.465576 289.844849,327.955597 293.711182,327.215271 
	C294.753052,327.015778 296.206573,326.436859 296.798370,327.797821 
	C297.425140,329.239197 296.572845,329.988495 295.128387,330.723297 
	C290.981110,332.832947 290.656158,336.298737 294.210297,338.407562 
	C295.343689,339.080078 297.765350,338.894501 296.780396,341.045349 
	C295.925262,342.912750 293.952057,342.022614 292.453796,341.505371 
	C291.697662,341.244354 291.054626,340.655670 290.110107,339.916321 
z"/>
<path fill="#7B7778" opacity="1.000000" stroke="none" 
	d="
M521.210693,341.520508 
	C519.923767,341.841125 518.856628,341.887909 517.401978,341.822876 
	C516.263855,340.889801 516.082947,339.972076 516.782349,338.653046 
	C517.939819,338.339966 519.264526,339.062927 519.605286,337.782471 
	C519.964844,336.431152 518.532227,336.456360 517.646606,336.175598 
	C515.040649,335.349365 513.899170,333.462982 514.158691,330.857635 
	C514.355591,328.880371 515.612305,327.389252 517.554138,327.010773 
	C519.721130,326.588440 521.934509,326.666626 522.660461,329.371399 
	C521.492249,331.015228 519.433716,329.718506 517.859680,331.157318 
	C519.930725,333.367218 524.356689,333.903412 523.004822,338.525330 
	C522.213562,339.545258 521.869507,340.422089 521.210693,341.520508 
z"/>
<path fill="#757172" opacity="1.000000" stroke="none" 
	d="
M257.688416,328.651062 
	C259.041565,327.529053 260.228027,327.021484 261.629089,327.039307 
	C262.493713,327.050323 263.309814,327.068237 263.523346,328.140472 
	C263.701385,329.034332 263.372742,329.691498 262.669861,330.293762 
	C257.185150,334.993469 257.396912,337.393555 263.886627,340.840637 
	C260.834961,343.023865 258.262939,341.830292 256.580414,339.647430 
	C253.816772,336.061859 254.015503,332.258453 257.688416,328.651062 
z"/>
<path fill="#777374" opacity="1.000000" stroke="none" 
	d="
M267.152405,333.115662 
	C267.152863,331.985260 267.114777,331.318848 267.161377,330.658447 
	C267.270233,329.115967 266.609650,327.002563 269.273132,327.074249 
	C271.720459,327.140137 270.833405,329.158142 270.939941,330.455505 
	C271.075317,332.103638 271.075958,333.778900 270.950867,335.428528 
	C270.773193,337.771118 271.206818,339.326324 274.096161,338.963348 
	C275.278870,338.814819 276.692932,338.500549 276.438263,340.790161 
	C276.206909,342.870453 274.845520,341.970245 273.973877,342.034973 
	C267.154663,342.541321 267.152527,342.512573 267.152405,333.115662 
z"/>
<path fill="#777374" opacity="1.000000" stroke="none" 
	d="
M410.850861,342.004272 
	C403.103394,342.077728 402.952484,342.073090 403.198425,334.083557 
	C403.270294,331.749878 401.465668,327.433563 404.717041,327.375702 
	C408.743896,327.304108 406.501587,331.732361 406.728943,334.118744 
	C406.995148,336.913025 406.577209,339.310211 410.732697,339.106079 
	C413.049103,338.992279 412.612274,340.670654 410.850861,342.004272 
z"/>
<path fill="#7B7778" opacity="1.000000" stroke="none" 
	d="
M487.689148,333.005066 
	C490.943207,331.133820 491.278503,325.672119 497.054169,327.416565 
	C493.097992,331.845978 489.396881,336.452148 496.710236,341.228394 
	C491.707184,343.293823 490.621063,339.572479 488.354553,337.314545 
	C486.109283,336.152893 485.933380,334.814575 487.689148,333.005066 
z"/>
<path fill="#7F7B7B" opacity="1.000000" stroke="none" 
	d="
M354.338867,330.453430 
	C353.231628,330.687775 352.143921,330.502167 351.753845,330.939240 
	C350.848785,331.953278 352.098724,332.193726 352.712738,332.581238 
	C353.542816,333.105072 354.459076,333.512054 355.224640,334.113800 
	C356.375946,335.018768 356.419556,336.527222 355.095337,336.759979 
	C352.622162,337.194794 350.079773,336.642578 348.411652,334.450775 
	C346.803772,332.338104 346.900055,330.163788 348.773895,328.180664 
	C350.517700,326.335083 352.547119,326.191559 354.610138,327.472656 
	C355.866455,328.252838 356.751190,329.324493 354.338867,330.453430 
z"/>
<path fill="#7F7B7B" opacity="1.000000" stroke="none" 
	d="
M425.015015,330.294434 
	C425.125641,328.575073 424.744843,327.019836 426.839172,327.026154 
	C428.739502,327.031891 428.883331,328.301453 428.878296,329.728333 
	C428.866577,333.051697 428.860748,336.375153 428.868378,339.698517 
	C428.871460,341.038300 428.428864,341.907196 426.909821,341.975464 
	C425.235046,342.050720 425.038208,340.980255 425.032013,339.729126 
	C425.017212,336.738098 425.018616,333.747009 425.015015,330.294434 
z"/>
<path fill="#7F7B7B" opacity="1.000000" stroke="none" 
	d="
M343.879578,334.030121 
	C342.858673,336.915771 346.086151,341.743896 341.612274,341.627472 
	C338.159637,341.537598 340.635895,336.956055 340.057892,334.455383 
	C339.693268,332.877869 339.978180,331.145752 340.006317,329.483521 
	C340.025940,328.323822 339.928284,327.047394 341.660309,327.019318 
	C343.412384,326.990906 343.936066,327.991821 343.878113,329.570404 
	C343.829346,330.898529 343.875488,332.230164 343.879578,334.030121 
z"/>
<path fill="#7B7778" opacity="1.000000" stroke="none" 
	d="
M505.261353,336.659851 
	C505.000519,337.741272 504.988556,338.453156 505.016571,339.520813 
	C505.372498,340.278778 505.509094,340.731262 505.207642,341.531433 
	C502.439331,342.432739 500.874115,341.989105 501.072113,338.821869 
	C501.265442,335.729218 501.129883,332.615204 501.114838,329.510712 
	C501.107910,328.074249 501.305756,326.854645 503.611908,327.080750 
	C504.496155,327.582275 505.001526,327.974457 505.455872,328.822876 
	C505.619080,329.552185 505.571259,329.969269 505.163574,330.574829 
	C504.911743,331.266968 504.906006,331.756104 504.956299,332.608032 
	C505.821228,333.980927 506.072418,335.074646 505.261353,336.659851 
z"/>
<path fill="#757172" opacity="1.000000" stroke="none" 
	d="
M194.709351,327.456909 
	C195.519226,327.037109 196.039169,326.862366 196.498825,326.962982 
	C198.259079,327.348236 201.088074,325.757355 201.592194,328.237762 
	C202.126770,330.868042 199.290009,330.240692 197.648636,330.590820 
	C197.006027,330.727905 196.376450,331.025482 196.374069,331.839783 
	C196.370605,333.019836 197.340424,332.952301 198.106033,333.128754 
	C200.857483,333.762848 200.942673,336.174957 198.899338,336.495758 
	C195.045990,337.100800 196.739685,339.966034 195.403412,341.792358 
	C192.419205,337.327759 193.202866,332.587250 194.709351,327.456909 
z"/>
<path fill="#7F7B7B" opacity="1.000000" stroke="none" 
	d="
M439.039185,330.616638 
	C438.997528,333.899658 438.870575,336.707581 438.893616,339.514252 
	C438.907257,341.175873 438.222748,341.981750 436.585724,341.979309 
	C434.819122,341.976685 434.997162,340.638855 434.977386,339.516296 
	C434.933685,337.036560 434.948883,334.555786 434.906921,331.626404 
	C435.568237,328.087036 437.237579,328.894043 439.039185,330.616638 
z"/>
<path fill="#7F7B7B" opacity="1.000000" stroke="none" 
	d="
M460.011017,330.586670 
	C459.962189,333.866821 459.829926,336.672760 459.826294,339.478851 
	C459.824188,341.092865 459.237274,341.976959 457.548309,341.982239 
	C455.745422,341.987885 455.966766,340.645203 455.945648,339.536560 
	C455.898438,337.056458 455.918518,334.575073 455.884888,331.645721 
	C456.512543,328.097565 458.193207,328.900452 460.011017,330.586670 
z"/>
<path fill="#928D8E" opacity="1.000000" stroke="none" 
	d="
M194.614792,327.038635 
	C195.004761,331.722748 194.982559,336.360107 194.993500,341.456451 
	C194.534286,341.929688 193.866882,342.159454 193.577164,341.924164 
	C191.259705,340.041870 191.753876,329.192719 194.614792,327.038635 
z"/>
<path fill="#615E5F" opacity="1.000000" stroke="none" 
	d="
M391.780090,327.540100 
	C394.394958,329.881226 392.703033,333.085907 393.129883,336.033936 
	C393.350891,337.560608 393.142609,338.945190 395.379333,339.077606 
	C396.319031,339.133240 398.363373,337.786285 398.272186,340.508423 
	C398.169434,343.575073 395.940918,341.353119 394.845215,341.953400 
	C394.339508,342.230469 393.546814,341.983643 392.481842,341.902161 
	C390.082367,337.267212 390.994324,332.579437 391.780090,327.540100 
z"/>
<path fill="#615E5F" opacity="1.000000" stroke="none" 
	d="
M486.218079,341.451843 
	C485.437683,341.768036 484.546295,341.751160 484.537292,341.653168 
	C484.090363,336.790253 482.994629,331.890839 485.494049,327.149567 
	C487.881744,331.735413 486.601227,336.434113 486.218079,341.451843 
z"/>
<path fill="#928D8E" opacity="1.000000" stroke="none" 
	d="
M486.293579,341.847534 
	C485.928711,337.242889 485.939941,332.662994 485.934052,327.630157 
	C489.605072,327.515839 487.154114,330.472443 488.023376,332.427002 
	C487.529510,334.032654 486.763794,335.224670 487.934967,336.849518 
	C487.453339,338.688995 488.915405,340.827301 486.293579,341.847534 
z"/>
<path fill="#757172" opacity="1.000000" stroke="none" 
	d="
M348.506287,339.380524 
	C348.969147,338.906677 349.250305,338.608246 349.538879,338.600891 
	C351.406830,338.553314 353.455627,338.256958 354.802673,339.838684 
	C355.311218,340.435791 354.365875,341.479614 353.628815,341.678040 
	C351.459473,342.262054 349.362610,342.292511 348.506287,339.380524 
z"/>
<path fill="#615E5F" opacity="1.000000" stroke="none" 
	d="
M432.498840,329.207764 
	C434.943359,325.386749 438.202026,326.772064 441.395660,328.407898 
	C438.616974,330.284973 435.688995,329.386383 432.498840,329.207764 
z"/>
<path fill="#615E5F" opacity="1.000000" stroke="none" 
	d="
M453.513062,329.214539 
	C455.905609,325.421295 459.053864,326.620270 462.166443,328.627777 
	C459.400757,329.945831 456.634033,329.554749 453.513062,329.214539 
z"/>
<path fill="#928D8E" opacity="1.000000" stroke="none" 
	d="
M432.123596,329.283936 
	C434.950806,328.921173 437.749298,328.914459 440.944519,328.839081 
	C441.874176,330.268677 441.217407,330.922363 439.408386,331.048340 
	C437.974792,329.634705 436.677704,329.694855 435.070923,330.871765 
	C433.894043,330.761444 432.300049,331.455902 432.123596,329.283936 
z"/>
<path fill="#888384" opacity="1.000000" stroke="none" 
	d="
M505.403076,336.996887 
	C505.008850,335.947113 505.005249,334.864838 505.007019,333.376709 
	C506.425323,333.345673 508.634430,332.297333 508.849548,334.856598 
	C509.038300,337.101746 507.254639,336.892273 505.403076,336.996887 
z"/>
<path fill="#928D8E" opacity="1.000000" stroke="none" 
	d="
M391.790375,327.133728 
	C392.067749,331.754486 392.056549,336.338654 392.062408,341.376404 
	C391.886902,341.854309 391.694397,341.878662 391.212646,341.869751 
	C390.025848,337.249847 390.703003,332.621490 390.740417,327.589355 
	C391.116547,327.141541 391.309174,327.119324 391.790375,327.133728 
z"/>
<path fill="#615E5F" opacity="1.000000" stroke="none" 
	d="
M282.235718,341.460571 
	C279.718353,337.159576 281.273438,332.278015 281.546417,327.328033 
	C283.917175,331.732147 282.996033,336.419586 282.235718,341.460571 
z"/>
<path fill="#888384" opacity="1.000000" stroke="none" 
	d="
M282.212891,341.876892 
	C281.951263,337.247284 281.961304,332.661224 281.955963,327.621277 
	C282.121826,327.138580 282.303040,327.109711 282.757141,327.117188 
	C284.031525,331.747192 283.273926,336.392517 283.233490,341.429138 
	C282.848022,341.871796 282.666260,341.896118 282.212891,341.876892 
z"/>
<path fill="#757172" opacity="1.000000" stroke="none" 
	d="
M283.446167,341.717651 
	C283.021912,337.252563 283.014069,332.657654 283.018097,327.608154 
	C285.575684,331.834167 284.064178,336.748779 283.446167,341.717651 
z"/>
<path fill="#615E5F" opacity="1.000000" stroke="none" 
	d="
M301.560608,327.340820 
	C301.961426,331.761902 301.964996,336.333527 301.963074,341.357544 
	C299.730316,337.145935 301.299042,332.271362 301.560608,327.340820 
z"/>
<path fill="#615E5F" opacity="1.000000" stroke="none" 
	d="
M390.525604,327.318970 
	C390.936493,331.752014 390.949097,336.340302 390.942566,341.382507 
	C388.633942,337.161224 390.200378,332.272278 390.525604,327.318970 
z"/>
<path fill="#928D8E" opacity="1.000000" stroke="none" 
	d="
M453.115906,329.287537 
	C455.825684,328.962708 458.510101,328.993225 461.647491,329.044067 
	C462.253265,330.140900 461.922516,330.868103 460.382568,331.014862 
	C458.935120,329.635712 457.643311,329.688721 456.052032,330.889709 
	C454.890564,330.759888 453.289581,331.449799 453.115906,329.287537 
z"/>
<path fill="#615E5F" opacity="1.000000" stroke="none" 
	d="
M505.390045,329.293152 
	C504.702209,328.602753 504.382385,328.162018 504.047791,327.435547 
	C506.034912,327.452728 508.364716,325.791809 509.962402,328.555176 
	C508.649902,330.075989 507.247833,330.121277 505.390045,329.293152 
z"/>
<path fill="#888384" opacity="1.000000" stroke="none" 
	d="
M530.723633,341.604309 
	C529.197510,341.938629 527.644897,342.490173 527.419250,340.504364 
	C527.311279,339.554596 528.042114,339.111237 528.965332,339.007080 
	C530.754517,338.805267 531.354370,339.627136 530.723633,341.604309 
z"/>
<path fill="#888384" opacity="1.000000" stroke="none" 
	d="
M505.003235,329.332458 
	C506.377350,329.017853 507.732635,328.992249 509.494690,328.963440 
	C509.392853,331.748047 507.123596,330.167084 505.303375,330.717834 
	C504.939819,330.392365 504.962097,330.006927 505.003235,329.332458 
z"/>
<path fill="#888384" opacity="1.000000" stroke="none" 
	d="
M505.382233,341.867096 
	C504.990417,341.388977 505.004547,340.956726 505.037598,340.200531 
	C506.605347,340.047363 508.154175,340.218140 510.024841,340.424408 
	C508.898254,342.653290 507.147552,341.687225 505.382233,341.867096 
z"/>
<path fill="#7F7B7B" opacity="1.000000" stroke="none" 
	d="
M516.704590,338.367981 
	C517.015503,339.254242 517.012085,340.147644 517.011597,341.376038 
	C515.265564,340.887360 513.791687,340.012268 516.704590,338.367981 
z"/>
<path fill="#7F7B7B" opacity="1.000000" stroke="none" 
	d="
M521.276489,341.731628 
	C521.036682,340.768188 521.020203,339.718140 522.410645,338.928955 
	C523.452881,340.208130 522.383789,340.886047 521.276489,341.731628 
z"/>
</svg>